#!OML:ASF H:\Male1\Project 1\Capture day 1\Session 1\Male1.ASF
:FULLY-SPECIFIED
:DEGREES
210
root 5.82669 15.1027 1.83813 175.939 17.5289 185.613
lowerback 2.48502 1.99048 1.80347
upperback -4.32651 2.78947 -2.3717
thorax -5.67989 1.30772 -3.68698
lowerneck -11.131 4.52968 8.05889
upperneck 20.6437 8.27196 -10.9284
head 9.07506 3.87725 -4.07683
rclavicle -1.31198e-014 -5.56597e-014
rhumerus -25.5856 -23.6815 11.3
rradius 31.7434
rwrist -24.2825
rhand -39.2505 3.09135
rfingers 7.12502
rthumb -12.2452 -26.5302
lclavicle -1.31198e-014 -5.56597e-014
lhumerus -24.3748 34.8275 -22.0806
lradius 26.329
lwrist -2.1071
lhand -45.9408 15.1184
lfingers 7.12502
lthumb -18.6887 44.2406
rfemur 5.46662 22.6133 30.1782
rtibia 24.1226
rfoot -27.4528 -24.3667
rtoes -32.6608
lfemur 10.3684 -17.0071 -21.6702
ltibia 25.3972
lfoot -48.3841 30.6348
ltoes 18.7473
211
root 5.82335 15.1041 1.84099 175.967 17.5139 185.545
lowerback 2.44943 1.91677 1.54557
upperback -4.33678 2.68101 -2.27485
thorax -5.69322 1.26709 -3.43238
lowerneck -11.0992 4.26354 7.6224
upperneck 20.4836 7.78619 -10.4046
head 8.92236 3.64967 -3.88206
rclavicle -6.99722e-014 -6.83819e-014
rhumerus -25.7122 -23.9721 11.1946
rradius 31.6903
rwrist -24.334
rhand -39.6666 3.33418
rfingers 7.12502
rthumb -12.6464 -26.263
lclavicle -6.99722e-014 -6.83819e-014
lhumerus -24.939 34.3727 -22.1567
lradius 26.3657
lwrist -1.20079
lhand -46.2517 14.9247
lfingers 7.12502
lthumb -18.9877 44.0179
rfemur 5.41911 22.6225 30.0727
rtibia 24.0698
rfoot -27.4432 -24.3953
rtoes -32.5125
lfemur 10.2345 -16.8986 -21.6731
ltibia 25.4277
lfoot -47.9872 31.0393
ltoes 17.6026
212
root 5.81838 15.1056 1.84438 176.014 17.5353 185.624
lowerback 2.43 1.86878 1.51827
upperback -4.33734 2.61673 -2.20768
thorax -5.69102 1.23736 -3.34165
lowerneck -11.0841 4.04832 7.44609
upperneck 20.383 7.37454 -10.0302
head 8.82148 3.46451 -3.77406
rclavicle -2.38542e-014 2.22639e-014
rhumerus -25.9048 -24.4292 11.1166
rradius 31.5757
rwrist -24.1402
rhand -39.7201 3.23728
rfingers 7.12502
rthumb -12.698 -26.3567
lclavicle -2.38542e-014 2.22639e-014
lhumerus -25.4402 34.9633 -22.4297
lradius 26.3221
lwrist -1.4254
lhand -46.2344 15.0953
lfingers 7.12502
lthumb -18.9711 44.1902
rfemur 5.36802 22.5948 30.1058
rtibia 24.0549
rfoot -27.4719 -24.2617
rtoes -32.2631
lfemur 10.1574 -16.8155 -21.5456
ltibia 25.4309
lfoot -47.8017 31.1947
ltoes 17.1399
213
root 5.81253 15.1069 1.84862 176.038 17.5303 185.716
lowerback 2.46873 1.8044 1.54067
upperback -4.34876 2.53331 -2.14026
thorax -5.7328 1.19493 -3.28032
lowerneck -11.1238 3.92054 7.35529
upperneck 20.3961 7.11105 -9.72132
head 8.79219 3.35196 -3.68469
rclavicle 3.1408e-014 2.54444e-014
rhumerus -26.1 -23.3347 10.7928
rradius 31.7772
rwrist -25.4302
rhand -39.982 2.92387
rfingers 7.12502
rthumb -12.9504 -26.6542
lclavicle 3.1408e-014 2.54444e-014
lhumerus -25.9798 36.0216 -22.8231
lradius 26.2843
lwrist -2.16173
lhand -46.252 15.475
lfingers 7.12502
lthumb -18.9881 44.5681
rfemur 5.32654 22.5214 30.144
rtibia 24.0436
rfoot -27.418 -24.1657
rtoes -32.3275
lfemur 10.1575 -16.9405 -21.5114
ltibia 25.4363
lfoot -48.1338 30.8901
ltoes 18.2155
214
root 5.80675 15.1068 1.85248 176.046 17.4862 185.718
lowerback 2.48914 1.77164 1.54231
upperback -4.34308 2.48959 -2.12016
thorax -5.74215 1.17308 -3.25794
lowerneck -11.2417 3.8067 7.17426
upperneck 20.4349 6.87283 -9.35955
head 8.78506 3.24733 -3.55761
rclavicle 3.18055e-015 -7.95139e-014
rhumerus -26.3325 -21.7292 10.5035
rradius 32.0391
rwrist -27.1623
rhand -40.1708 2.73421
rfingers 7.12502
rthumb -13.1325 -26.8323
lclavicle 3.18055e-015 -7.95139e-014
lhumerus -26.0597 35.4318 -22.6248
lradius 26.2939
lwrist -1.13549
lhand -46.5036 15.7012
lfingers 7.12502
lthumb -19.23 44.7705
rfemur 5.29998 22.5426 30.1226
rtibia 24.0317
rfoot -27.3286 -24.275
rtoes -32.6353
lfemur 10.1378 -17.0331 -21.5551
ltibia 25.4365
lfoot -48.3 30.7359
ltoes 18.838
215
root 5.80182 15.1077 1.85454 176.039 17.4447 185.639
lowerback 2.4581 1.75767 1.51982
upperback -4.31402 2.46766 -2.15964
thorax -5.69436 1.16343 -3.28264
lowerneck -11.3509 3.72298 7.02439
upperneck 20.3947 6.66411 -9.01683
head 8.75542 3.15624 -3.43852
rclavicle -2.22639e-014 -4.29375e-014
rhumerus -26.6578 -23.6429 10.8926
rradius 31.8611
rwrist -25.3481
rhand -38.9545 2.59955
rfingers 7.12502
rthumb -11.9598 -27.0388
lclavicle -2.22639e-014 -4.29375e-014
lhumerus -25.6042 33.4617 -22.0818
lradius 26.0485
lwrist 1.26203
lhand -46.6714 16.1312
lfingers 7.12502
lthumb -19.3914 45.1843
rfemur 5.27605 22.6531 30.0433
rtibia 24.0637
rfoot -27.4701 -24.314
rtoes -32.3816
lfemur 10.122 -17.0962 -21.6571
ltibia 25.3914
lfoot -48.1247 31.079
ltoes 18.1898
216
root 5.79677 15.1096 1.85583 176.022 17.4468 185.521
lowerback 2.43165 1.71654 1.45445
upperback -4.31167 2.40882 -2.20104
thorax -5.6814 1.13723 -3.28399
lowerneck -11.3364 3.71106 6.94993
upperneck 20.2784 6.5639 -8.74446
head 8.69262 3.12102 -3.34456
rclavicle -1.19271e-015 -3.18055e-015
rhumerus -26.8849 -22.9855 10.7619
rradius 32.1257
rwrist -26.1452
rhand -40.604 2.251
rfingers 7.12502
rthumb -13.5499 -27.2881
lclavicle -1.19271e-015 -3.18055e-015
lhumerus -26.0053 34.5921 -22.5186
lradius 26.0821
lwrist 0.363525
lhand -46.3479 15.9257
lfingers 7.12502
lthumb -19.0803 45.0098
rfemur 5.23536 22.7608 29.9178
rtibia 24.1238
rfoot -27.6838 -24.2451
rtoes -31.8531
lfemur 10.1467 -17.2412 -21.8498
ltibia 25.3208
lfoot -48.1085 31.3884
ltoes 17.8442
217
root 5.79236 15.1108 1.85766 176.001 17.4801 185.393
lowerback 2.44013 1.73198 1.40096
upperback -4.29699 2.42509 -2.26089
thorax -5.66935 1.14706 -3.31744
lowerneck -11.488 3.67264 6.71112
upperneck 20.2726 6.42629 -8.32405
head 8.68518 3.06447 -3.17529
rclavicle -4.29375e-014 2.38542e-014
rhumerus -26.8011 -23.5017 10.6301
rradius 31.7198
rwrist -25.8279
rhand -39.9675 2.99052
rfingers 7.12502
rthumb -12.9364 -26.5885
lclavicle -4.29375e-014 2.38542e-014
lhumerus -26.0173 35.3124 -22.6454
lradius 25.9812
lwrist -0.0859931
lhand -46.3502 15.6116
lfingers 7.12502
lthumb -19.0825 44.6955
rfemur 5.18414 22.8071 29.7688
rtibia 24.1702
rfoot -27.6275 -24.2757
rtoes -31.9638
lfemur 10.1462 -17.1975 -21.9847
ltibia 25.2608
lfoot -48.1532 31.3336
ltoes 18.0153
218
root 5.78783 15.1115 1.85979 176.009 17.5248 185.324
lowerback 2.44507 1.77212 1.44183
upperback -4.28423 2.47878 -2.33266
thorax -5.65077 1.17114 -3.41877
lowerneck -11.6787 3.63338 6.46034
upperneck 20.3365 6.29156 -7.86838
head 8.70821 3.01265 -2.99169
rclavicle -2.14687e-014 6.52014e-014
rhumerus -27.3814 -21.4814 10.6962
rradius 32.3787
rwrist -27.8641
rhand -40.8352 2.10673
rfingers 7.12502
rthumb -13.7728 -27.4174
lclavicle -2.14687e-014 6.52014e-014
lhumerus -25.936 35.7704 -22.5983
lradius 26.0464
lwrist -0.284352
lhand -46.382 15.6904
lfingers 7.12502
lthumb -19.1131 44.7713
rfemur 5.10403 22.7652 29.6463
rtibia 24.2073
rfoot -27.4505 -24.3122
rtoes -32.4091
lfemur 10.0931 -16.9881 -21.9736
ltibia 25.2125
lfoot -47.9686 31.3617
ltoes 17.6222
